<?xml version="1.0" standalone="no"?>
<!DOCTYPE svg PUBLIC "-//W3C//DTD SVG 20010904//EN"
 "http://www.w3.org/TR/2001/REC-SVG-20010904/DTD/svg10.dtd">
<svg version="1.0" xmlns="http://www.w3.org/2000/svg"
 width="144.000000pt" height="54.000000pt" viewBox="0 0 144.000000 54.000000"
 preserveAspectRatio="xMidYMid meet">

<g transform="translate(0.000000,54.000000) scale(0.100000,-0.100000)"
fill="#000000" stroke="none">
<path d="M1320 475 c-7 -9 -21 -13 -31 -10 -24 8 -24 -7 -1 -28 17 -16 20 -15
45 11 15 16 27 31 27 35 0 13 -27 7 -40 -8z"/>
<path d="M1405 265 c-4 -11 -13 -33 -21 -50 l-14 -30 -1 30 c-1 29 -2 29 -14
-10 -8 -22 -14 -32 -14 -22 -1 10 -9 17 -20 17 -11 0 -21 6 -24 13 -3 6 -12
-4 -20 -23 -15 -32 -16 -33 -17 -10 0 20 -2 22 -10 10 -6 -10 -10 -11 -10 -2
0 6 -4 12 -10 12 -5 0 -10 -13 -10 -29 0 -35 -20 -53 -21 -19 0 13 -3 17 -6
11 -2 -7 -14 -14 -26 -14 -17 -1 -18 -2 -4 -6 22 -6 22 -20 0 -26 -17 -4 -17
-5 0 -6 9 0 17 -5 17 -10 0 -14 -133 -12 -142 2 -5 8 -8 6 -8 -6 0 -14 -4 -16
-19 -8 -10 6 -21 8 -23 5 -3 -2 -33 -5 -67 -5 -49 -1 -61 -4 -62 -18 -1 -9 -5
-2 -9 14 l-8 30 -2 -35 c-1 -27 -3 -31 -9 -16 -8 21 -41 31 -41 13 0 -7 -5 -4
-11 5 -11 20 -39 13 -40 -11 0 -14 -1 -14 -7 1 -8 21 -28 11 -35 -17 -4 -19
-5 -18 -6 2 -1 22 -21 44 -21 24 0 -15 -27 -14 -33 2 -3 6 -6 -4 -7 -23 -2
-22 -4 -28 -7 -15 -9 37 -23 40 -24 5 l-1 -35 -14 32 c-16 36 -30 42 -37 16
-3 -11 -5 -7 -6 10 -1 36 -20 35 -27 -3 -4 -16 -10 -27 -14 -25 -5 3 -11 -1
-13 -7 -3 -7 -6 -2 -6 12 -1 20 -3 22 -11 10 -5 -8 -10 -23 -10 -33 0 -16 28
-17 483 -15 l482 3 3 111 c3 113 -8 180 -23 139z"/>
<path d="M1000 150 c0 -5 5 -10 10 -10 6 0 10 5 10 10 0 6 -4 10 -10 10 -5 0
-10 -4 -10 -10z"/>
<path d="M912 130 c0 -14 2 -19 5 -12 2 6 2 18 0 25 -3 6 -5 1 -5 -13z"/>
<path d="M960 131 c0 -12 5 -21 10 -21 6 0 10 6 10 14 0 8 -4 18 -10 21 -5 3
-10 -3 -10 -14z"/>
<path d="M1090 131 c0 -12 5 -21 10 -21 6 0 10 6 10 14 0 8 -4 18 -10 21 -5 3
-10 -3 -10 -14z"/>
<path d="M313 67 c-21 -12 -33 -14 -33 -7 0 6 -4 8 -10 5 -15 -9 -12 -55 3
-55 7 0 18 5 25 12 9 9 12 9 12 0 0 -8 18 -12 50 -12 53 0 60 8 33 39 -19 23
-32 19 -34 -12 -1 -12 -5 -6 -8 14 l-6 35 -32 -19z"/>
<path d="M90 46 c-6 -6 -16 -11 -22 -11 -6 0 -13 -6 -15 -12 -3 -9 10 -13 46
-13 43 0 51 3 51 19 0 22 -43 34 -60 17z"/>
<path d="M220 51 c0 -7 -6 -11 -15 -7 -10 3 -15 -1 -15 -12 0 -13 -2 -14 -9
-4 -7 11 -9 11 -14 -2 -5 -13 1 -16 26 -16 47 0 60 12 42 36 -9 12 -14 14 -15
5z"/>
<path d="M436 42 c-4 -13 -5 -26 -2 -29 10 -11 18 4 14 29 l-4 23 -8 -23z"/>
</g>
</svg>
