<svg width="254" height="32" viewBox="0 0 254 32" fill="none" xmlns="http://www.w3.org/2000/svg">
<path d="M134.126 31.5211H117.851V26.732L121.55 25.2517V6.66122L117.851 5.22449V0.435374H134.126V5.22449L130.471 6.66122V25.2517L134.126 26.732V31.5211Z" fill="#9CA6B8"/>
<path d="M148.984 0.435374C152.668 0.435374 155.453 1.29161 157.339 3.00408C159.254 4.71655 160.211 7.15465 160.211 10.3184C160.211 11.7406 160.023 13.1048 159.646 14.4109C159.268 15.688 158.659 16.849 157.818 17.8939C156.977 18.9097 155.86 19.7224 154.467 20.332C153.075 20.9125 151.348 21.2027 149.289 21.2027H147.33V31.5211H138.453V0.435374H148.984ZM148.941 7.22721H147.33V14.3673H148.592C149.028 14.3673 149.463 14.2512 149.898 14.019C150.333 13.7578 150.696 13.3515 150.986 12.8C151.276 12.2195 151.421 11.4649 151.421 10.5361C151.421 9.54921 151.218 8.75102 150.812 8.1415C150.406 7.53197 149.782 7.22721 148.941 7.22721Z" fill="#9CA6B8"/>
<path d="M184.523 22.0735C184.523 23.7569 184.131 25.3533 183.348 26.8626C182.594 28.3719 181.346 29.6054 179.606 30.5633C177.865 31.4921 175.559 31.9565 172.686 31.9565C171.178 31.9565 169.901 31.8839 168.857 31.7388C167.842 31.6227 166.913 31.4195 166.072 31.1292C165.231 30.839 164.302 30.4617 163.287 29.9973V22.5088C164.97 23.3506 166.652 24.0036 168.335 24.468C170.017 24.9034 171.468 25.1211 172.686 25.1211C173.325 25.1211 173.861 25.0195 174.297 24.8163C174.732 24.6131 175.051 24.3374 175.254 23.9891C175.486 23.6408 175.602 23.249 175.602 22.8136C175.602 22.2621 175.471 21.7977 175.21 21.4204C174.949 21.0431 174.456 20.6512 173.731 20.2449C173.006 19.8385 171.947 19.3451 170.554 18.7646C169.249 18.2132 168.132 17.6472 167.203 17.0667C166.304 16.4862 165.579 15.8331 165.028 15.1075C164.476 14.3819 164.07 13.5401 163.809 12.5823C163.548 11.5955 163.417 10.4345 163.417 9.09932C163.417 7.0966 163.911 5.42766 164.897 4.09252C165.912 2.72834 167.29 1.71247 169.031 1.0449C170.772 0.348299 172.773 0 175.036 0C177.183 0 179.054 0.2322 180.65 0.6966C182.275 1.13197 183.595 1.63991 184.61 2.22041L181.955 8.70748C180.795 8.09796 179.562 7.61905 178.257 7.27075C176.951 6.89342 175.791 6.70476 174.775 6.70476C174.166 6.70476 173.673 6.79184 173.296 6.96599C172.919 7.14014 172.643 7.38685 172.469 7.70612C172.295 7.99637 172.208 8.33016 172.208 8.70748C172.208 9.20091 172.367 9.63628 172.686 10.0136C173.035 10.3909 173.629 10.8118 174.471 11.2762C175.341 11.7116 176.545 12.3066 178.082 13.0612C179.475 13.6998 180.65 14.4109 181.607 15.1946C182.565 15.9782 183.29 16.9215 183.783 18.0245C184.276 19.0984 184.523 20.4481 184.523 22.0735Z" fill="#9CA6B8"/>
<path d="M214.012 19.1565C214.012 21.7687 213.534 24.0327 212.576 25.9483C211.619 27.8639 210.183 29.3442 208.268 30.3891C206.382 31.434 204.004 31.9565 201.131 31.9565C197.012 31.9565 193.864 30.868 191.688 28.6912C189.513 26.4853 188.425 23.3651 188.425 19.3306V0.435374H197.346V18.6775C197.346 20.8834 197.679 22.4798 198.346 23.4667C199.014 24.4535 199.971 24.9469 201.219 24.9469C202.147 24.9469 202.901 24.7292 203.481 24.2939C204.062 23.8585 204.482 23.1764 204.743 22.2476C205.004 21.3188 205.135 20.1143 205.135 18.634V0.435374H214.012V19.1565Z" fill="#9CA6B8"/>
<path d="M232.764 31.5211L227.15 8.70748H226.976C227.034 9.28798 227.092 10.0717 227.15 11.0585C227.208 12.0454 227.267 13.1193 227.325 14.2803C227.383 15.4122 227.412 16.5152 227.412 17.5891V31.5211H219.579V0.435374H232.329L236.898 19.5918H237.029L241.25 0.435374H254V31.5211H245.906V17.4585C245.906 16.4717 245.92 15.4268 245.949 14.3238C245.979 13.1918 246.007 12.1324 246.036 11.1456C246.095 10.1297 246.153 9.33152 246.211 8.75102H246.036L240.858 31.5211H232.764Z" fill="#9CA6B8"/>
<path d="M0 31.5646V0.478911H8.87732V24.7728H19.7564V31.5646H0Z" fill="#9CA6B8"/>
<path d="M51.1364 15.9782C51.1364 18.3873 50.8608 20.5787 50.3095 22.5524C49.7874 24.497 48.946 26.1805 47.7856 27.6027C46.6542 29.0249 45.1746 30.1134 43.3469 30.868C41.5483 31.6227 39.358 32 36.776 32C34.252 32 32.0907 31.6227 30.2921 30.868C28.4934 30.1134 27.0138 29.0249 25.8534 27.6027C24.693 26.1805 23.8227 24.497 23.2424 22.5524C22.6912 20.5787 22.4156 18.3728 22.4156 15.9347C22.4156 12.7129 22.9233 9.91202 23.9387 7.53197C24.9541 5.1229 26.5207 3.26531 28.6385 1.95918C30.7562 0.653061 33.4833 0 36.8195 0C40.2428 0 42.9988 0.667574 45.0876 2.00272C47.2054 3.30884 48.743 5.16644 49.7003 7.57551C50.6577 9.95555 51.1364 12.7565 51.1364 15.9782ZM31.7281 15.9782C31.7281 17.8358 31.8877 19.4467 32.2068 20.8109C32.5549 22.146 33.1061 23.1764 33.8604 23.902C34.6147 24.6277 35.5865 24.9905 36.776 24.9905C38.0525 24.9905 39.0533 24.6277 39.7786 23.902C40.5039 23.1764 41.0261 22.146 41.3452 20.8109C41.6643 19.4467 41.8239 17.8358 41.8239 15.9782C41.8239 13.1628 41.4467 10.9424 40.6925 9.31701C39.9672 7.69161 38.6762 6.87891 36.8195 6.87891C35.572 6.87891 34.5712 7.25624 33.8169 8.01088C33.0626 8.73651 32.5259 9.7814 32.2068 11.1456C31.8877 12.4807 31.7281 14.0916 31.7281 15.9782Z" fill="#9CA6B8"/>
<path d="M68.1077 13.366H81.2496V30.1279C79.741 30.6794 77.9279 31.1292 75.8101 31.4776C73.7213 31.8258 71.6035 32 69.4567 32C66.7007 32 64.2347 31.4195 62.0589 30.2585C59.8831 29.0975 58.1715 27.327 56.924 24.9469C55.6766 22.5669 55.0528 19.5628 55.0528 15.9347C55.0528 12.6839 55.633 9.86848 56.7935 7.48843C57.9539 5.10839 59.68 3.27982 61.9719 2.00272C64.2638 0.696598 67.0923 0.0435368 70.4576 0.0435368C72.4303 0.0435368 74.2725 0.232199 75.9841 0.609524C77.6958 0.957822 79.1463 1.42222 80.3358 2.00272L77.5942 8.57687C76.4628 8.0254 75.3314 7.61905 74.2 7.35782C73.0686 7.06757 71.8501 6.92245 70.5446 6.92245C68.833 6.92245 67.513 7.34331 66.5846 8.18503C65.6563 9.02676 65.018 10.1442 64.6699 11.5374C64.3508 12.9306 64.1912 14.4689 64.1912 16.1524C64.1912 18.068 64.4378 19.6934 64.931 21.0286C65.4532 22.3637 66.164 23.3796 67.0633 24.0762C67.9917 24.7438 69.0505 25.0775 70.24 25.0775C70.4141 25.0775 70.6897 25.063 71.0668 25.034C71.4729 25.005 71.8646 24.9615 72.2417 24.9034C72.6479 24.8454 72.938 24.7873 73.1121 24.7292V19.8531H68.1077V13.366Z" fill="#9CA6B8"/>
<path d="M114.413 15.9782C114.413 18.3873 114.138 20.5787 113.587 22.5524C113.064 24.497 112.223 26.1805 111.063 27.6027C109.931 29.0249 108.452 30.1134 106.624 30.868C104.825 31.6227 102.635 32 100.053 32C97.5291 32 95.3678 31.6227 93.5691 30.868C91.7705 30.1134 90.2909 29.0249 89.1305 27.6027C87.97 26.1805 87.0997 24.497 86.5195 22.5524C85.9683 20.5787 85.6927 18.3728 85.6927 15.9347C85.6927 12.7129 86.2004 9.91202 87.2158 7.53197C88.2311 5.1229 89.7977 3.26531 91.9155 1.95918C94.0333 0.653061 96.7603 0 100.097 0C103.52 0 106.276 0.667574 108.365 2.00272C110.482 3.30884 112.02 5.16644 112.977 7.57551C113.935 9.95555 114.413 12.7565 114.413 15.9782ZM95.0052 15.9782C95.0052 17.8358 95.1647 19.4467 95.4838 20.8109C95.832 22.146 96.3832 23.1764 97.1375 23.902C97.8917 24.6277 98.8636 24.9905 100.053 24.9905C101.33 24.9905 102.33 24.6277 103.056 23.902C103.781 23.1764 104.303 22.146 104.622 20.8109C104.941 19.4467 105.101 17.8358 105.101 15.9782C105.101 13.1628 104.724 10.9424 103.97 9.31701C103.244 7.69161 101.953 6.87891 100.097 6.87891C98.8491 6.87891 97.8482 7.25624 97.0939 8.01088C96.3397 8.73651 95.803 9.7814 95.4838 11.1456C95.1647 12.4807 95.0052 14.0916 95.0052 15.9782Z" fill="#9CA6B8"/>
</svg>
